# xmcd
#
# Track frame offsets: 
#        150
#        24501
#        47779
#        65838
#        72257
#        93085
#        108598
#        139892
#        155525
#        164330
#        181508
#        201608
#        221475
#        240558
#        244275
#        267426
#
# Disc length: 3827 seconds
#
# Revision: 0
# Processed by: cddbd v1.5.2PL0 Copyright (c) Steve Scherf et al.
# Submitted via: ExactAudioCopy v0.99pb4
#
DISCID=ed0ef110
DTITLE=Зимовье Зверей - Всегда готов к рок-н-ролу
DYEAR=2008
DGENRE=Blues
TTITLE0=Макросхема
TTITLE1=Полночь века
TTITLE2=Только парами 
TTITLE3=Лирическое отступление первое
TTITLE4=Спокойной ночи, старики 
TTITLE5=Зима на час
TTITLE6=Как раздеваются деревья
TTITLE7=В моих мирах 
TTITLE8=Лирическое отступление второе 
TTITLE9=Я обрастаю вещами
TTITLE10=Изверги 
TTITLE11=Сказки нашего двора
TTITLE12=Отложения во времени
TTITLE13=Лирическое отступление третье
TTITLE14=Кентавр
TTITLE15=Всегда готов к рок-н-роллу
EXTD=
EXTT0=
EXTT1=
EXTT2=
EXTT3=
EXTT4=
EXTT5=
EXTT6=
EXTT7=
EXTT8=
EXTT9=
EXTT10=
EXTT11=
EXTT12=
EXTT13=
EXTT14=
EXTT15=
PLAYORDER=
